<?xml version="1.0" encoding="utf-8"?>
<!-- Generator: Adobe Illustrator 24.1.0, SVG Export Plug-In . SVG Version: 6.00 Build 0)  -->
<svg version="1.1" id="Layer_1" xmlns="http://www.w3.org/2000/svg" xmlns:xlink="http://www.w3.org/1999/xlink" x="0px" y="0px"
	 viewBox="0 0 445.8 280" style="enable-background:new 0 0 445.8 280;" xml:space="preserve">
<style type="text/css">
	.st0{fill:#FFFFFF;}
</style>
<path d="M0,136.5c0-39,0-78,0-117C0,6.6,6.5,0.1,19.4,0.1c38,0,76-0.4,114,0.2c12,0.2,24.4,1.6,35.9,4.9c32.2,9,50.2,36,48.1,69.4
	c-0.9,14.6-4.8,27.7-15.2,38.6c-6.3,6.6-5.4,17,2.3,24.2c10.3,9.7,17,21.2,19.9,35c8.8,41.7-13.3,87.8-61.8,96.6
	c-12.9,2.3-26.1,3.6-39.2,3.8c-34.7,0.5-69.3,0.2-104,0.2C6.6,273,0,266.4,0,253.6C0,214.5,0,175.5,0,136.5z M101.7,226.6
	c0-0.1,0-0.3,0-0.4c10,0,20,0.4,30-0.1c13-0.6,24.7-4.4,31.7-16.5c5.2-9,6.3-18.8,4.9-29c-1.6-11.9-8.2-20-19.4-23.7
	c-6.4-2.1-13.3-3.5-20-3.7c-18.6-0.5-37.3-0.3-55.9-0.3c-11.1,0-18,7-18,18.2c-0.1,12.3-0.1,24.6,0,37c0,11.5,6.8,18.4,18.3,18.5
	C82.8,226.7,92.3,226.6,101.7,226.6z M101.1,107.3c7,0,14,0.3,21-0.1c7-0.4,14-0.8,20.8-2.3c10.8-2.5,17.6-9.6,19.8-20.7
	c3.8-19-5.3-32.2-24.3-35.1c-3-0.4-5.9-1-8.9-1.1c-19.2-0.4-38.3-0.8-57.5-0.8c-9.8,0-16.8,7.5-16.9,17.3c-0.1,8.3-0.1,16.7,0,25
	c0.1,10.8,7.1,17.6,18,17.7C82.4,107.3,91.7,107.3,101.1,107.3z"/>
<path d="M370.6,187.2c-19.5,0-39,0-58.5,0c-9.4,0-13.7,5.4-11.5,14.6c5.5,23.5,26.6,37.9,52.2,36c11.8-0.9,21.8-5.2,30.7-12.8
	c11.8-10.1,25.8-12.2,40.4-9.6c12.1,2.2,16,17.2,8.1,27.1c-18.3,22.7-41.9,34.7-70.9,37c-26.7,2.1-51.6-2.4-74.7-16.7
	c-19.2-11.9-31.9-28.6-37.2-50.5c-6.6-27.1-6.7-54.2,1.6-81c11.6-37.5,38.4-57.8,76.2-64.1c22.9-3.8,45.5-1.6,66.8,8.6
	c31.4,15,47.2,40.8,51.9,74.4c0.9,6.1,1.1,12.3,1.2,18.4c0.2,12-6.3,18.4-18.4,18.5C409.3,187.2,390,187.2,370.6,187.2z
	 M346.1,152.2c10.8,0,21.7,0.2,32.5-0.1c8.9-0.2,13.4-7.2,10.4-15.5c-3-8.3-8.2-14.8-15.7-19.5c-10.3-6.5-21.6-8.1-33.6-7.2
	c-17.2,1.3-28.9,10-35.4,25.8c-3.7,9.1,1.3,16.4,11.2,16.4C325.8,152.2,336,152.2,346.1,152.2z"/>
<path d="M345.6,16.1c13.6,0,27.3,0,40.9,0c10.4,0,18.1,7,18.3,16.4c0.2,9.7-7.5,17-18.2,17c-27.3,0.1-54.6,0.1-81.9,0
	c-10.8,0-18.4-7.3-18.2-17c0.2-9.8,7.8-16.5,18.7-16.5C318.6,16.1,332.1,16.1,345.6,16.1z"/>
<path class="st0" d="M101.7,226.6c-9.5,0-19,0.1-28.5,0c-11.4-0.1-18.2-7-18.3-18.5c-0.1-12.3-0.1-24.6,0-37
	c0.1-11.2,6.9-18.1,18-18.2c18.6,0,37.3-0.2,55.9,0.3c6.7,0.2,13.6,1.6,20,3.7c11.2,3.7,17.8,11.8,19.4,23.7c1.4,10.2,0.3,20-4.9,29
	c-7.1,12.1-18.8,15.9-31.7,16.5c-10,0.5-20,0.1-30,0.1C101.7,226.3,101.7,226.5,101.7,226.6z"/>
<path class="st0" d="M101.1,107.3c-9.3,0-18.7,0.1-28,0c-10.9-0.1-17.9-6.9-18-17.7c-0.1-8.3-0.1-16.7,0-25
	c0.2-9.9,7.2-17.4,16.9-17.3c19.2,0,38.3,0.4,57.5,0.8c3,0.1,6,0.6,8.9,1.1c19,2.9,28.1,16,24.3,35.1c-2.2,11.1-9,18.2-19.8,20.7
	c-6.7,1.6-13.8,1.9-20.8,2.3C115.1,107.6,108.1,107.3,101.1,107.3z"/>
<path class="st0" d="M346.1,152.2c-10.2,0-20.3,0.1-30.5,0c-10-0.1-15-7.3-11.2-16.4c6.5-15.8,18.2-24.5,35.4-25.8
	c11.9-0.9,23.2,0.7,33.6,7.2c7.5,4.7,12.7,11.2,15.7,19.5c3,8.3-1.5,15.3-10.4,15.5C367.8,152.3,357,152.2,346.1,152.2z"/>
</svg>
