<?xml version="1.0" encoding="utf-8"?>
<!-- Generator: Adobe Illustrator 24.1.0, SVG Export Plug-In . SVG Version: 6.00 Build 0)  -->
<svg version="1.1" id="Layer_1" xmlns="http://www.w3.org/2000/svg" xmlns:xlink="http://www.w3.org/1999/xlink" x="0px" y="0px"
	 viewBox="0 0 56 44" style="enable-background:new 0 0 56 44;" xml:space="preserve">
<style type="text/css">
	.st0{display:none;}
	.st1{display:inline;}
</style>
<g id="GUIDES_64" class="st0">
</g>
<g id="Layer_3" class="st0">
</g>
<g id="Layer_2_1_" class="st0">
	<path class="st1" d="M10.4,43.8c2.4,2,6.1,0.6,6.8-2.4v-0.1c0.4-1.8,2.4-10.2,3.2-13.7c0.2-0.9,0.2-1.8-0.1-2.7
		C20.2,24,20,22.8,20,21.5c0-4.1,2.4-7.2,5.4-7.2c2.5,0,3.8,1.9,3.8,4.2c0,2.6-1.6,6.4-2.5,9.9c-0.7,3,1.5,5.4,4.4,5.4
		c5.3,0,8.9-6.8,8.9-14.9c0-6.1-4.1-10.7-11.6-10.7c-8.5,0-13.8,6.3-13.8,13.4c0,2.4,0.7,4.2,1.8,5.5c0.5,0.6,0.6,0.9,0.4,1.6
		c-0.1,0.5-0.4,1.8-0.6,2.2c-0.2,0.7-0.8,1-1.4,0.7c-3.9-1.6-5.7-5.9-5.7-10.7c0-8,6.7-17.5,20-17.5c10.7,0,17.7,7.7,17.7,16
		c0,11-6.1,19.2-15.1,19.2c-1.9,0-3.8-0.7-5.2-1.6c-0.9-0.6-2.1-0.1-2.4,0.9c-0.5,1.9-1.1,4.3-1.3,4.9c-0.1,0.5-0.3,0.9-0.4,1.4
		c-1,2.7,0.9,5.5,3.7,5.7c2.1,0.1,4.2,0,6.3-0.3c12.4-2,22.1-12.2,23.4-24.7C57.5,8.1,44.4-6,28-6C12.5-6,0,6.5,0,22
		C0,30.8,4.1,38.6,10.4,43.8z"/>
</g>
<path d="M47.4,0H8.6C3.9,0,0,3.9,0,8.6v26.8C0,40.1,3.8,44,8.6,44h38.8c4.7,0,8.6-3.8,8.6-8.6V8.6C56,3.9,52.1,0,47.4,0z M47.2,18.8
	c-5.4,3.2-10.9,6.4-16.4,9.5c-1.9,1.1-3.8,1-5.7,0c-5.5-3.2-10.9-6.3-16.4-9.5c-1.7-1-2.4-2.4-1.3-4.2c1-1.7,2.6-1.9,4.3-0.9
	c5,2.9,9.9,5.8,14.9,8.6c0.7,0.4,2.1,0.4,2.8,0c4.9-2.7,9.8-5.6,14.7-8.5c2.4-1.4,4.9-0.2,4.9,2.9C48.7,17.1,48.1,18.2,47.2,18.8z"
	/>
</svg>
