<?xml version="1.0" encoding="utf-8"?>
<!-- Generator: Adobe Illustrator 24.1.0, SVG Export Plug-In . SVG Version: 6.00 Build 0)  -->
<svg version="1.1" id="Layer_1" xmlns="http://www.w3.org/2000/svg" xmlns:xlink="http://www.w3.org/1999/xlink" x="0px" y="0px"
	 viewBox="0 0 48.1 48" style="enable-background:new 0 0 48.1 48;" xml:space="preserve">
<g id="GUIDES_64">
</g>
<g id="Layer_3">
</g>
<g id="Layer_2_1_">
	<path class="svg-icon" d="M12.7,48h22.7c7,0,12.7-5.8,12.7-12.9V12.9C48,5.8,42.3,0,35.3,0H12.7C5.7,0,0,5.8,0,12.9v22.2C0,42.2,5.7,48,12.7,48z
		 M38,8c1.6,0,2.9,1.3,2.9,3s-1.3,3-2.9,3s-2.9-1.3-2.9-3S36.4,8,38,8z M24,12c6.5,0,11.7,5.4,11.7,12S30.5,36,24,36
		s-11.7-5.4-11.7-12S17.5,12,24,12z"/>
</g>
</svg>
